<?xml version="1.0" standalone="no"?>
<!DOCTYPE svg PUBLIC "-//W3C//DTD SVG 20010904//EN"
 "http://www.w3.org/TR/2001/REC-SVG-20010904/DTD/svg10.dtd">
<svg version="1.0" xmlns="http://www.w3.org/2000/svg"
 width="700.000000pt" height="700.000000pt" viewBox="0 0 700.000000 700.000000"
 preserveAspectRatio="xMidYMid meet">
<metadata>
Created by potrace 1.11, written by Peter Selinger 2001-2013
</metadata>
<g transform="translate(0.000000,700.000000) scale(0.100000,-0.100000)"
fill="#000000" stroke="none">
<path d="M2075 6986 c-51 -16 -49 -15 -85 -22 -16 -4 -30 -10 -30 -15 0 -5 -7
-9 -15 -9 -24 0 -132 -79 -176 -129 -56 -64 -57 -65 -89 -129 -110 -216 -72
-478 96 -656 l44 -46 -38 -78 c-82 -165 -142 -381 -158 -566 -3 -33 -7 -63 -9
-66 -3 -4 -28 -8 -57 -9 -29 0 -64 -3 -78 -6 -14 -3 -45 -8 -70 -11 -163 -21
-419 -116 -593 -220 -152 -91 -354 -271 -455 -404 -23 -30 -45 -59 -50 -65
-22 -27 -102 -163 -102 -173 0 -5 -3 -12 -8 -14 -9 -4 -75 -146 -102 -223 -27
-75 -66 -224 -75 -290 -19 -135 -22 -181 -19 -315 2 -80 5 -156 8 -169 3 -13
8 -49 12 -80 3 -31 8 -59 11 -63 2 -5 6 -17 9 -28 2 -11 6 -30 10 -42 3 -13 7
-33 9 -44 6 -25 68 -198 85 -236 7 -15 17 -25 23 -21 6 3 7 1 3 -5 -8 -13 8
-45 70 -149 68 -113 160 -230 258 -328 l91 -90 -25 -50 c-31 -63 -35 -180 -7
-232 67 -125 205 -182 336 -138 53 17 134 87 146 126 5 14 12 18 23 13 43 -18
238 -75 295 -85 l65 -12 -1 -121 c0 -111 6 -216 18 -291 19 -119 28 -154 38
-148 6 3 7 1 3 -5 -22 -35 99 -342 200 -509 172 -284 448 -537 747 -684 106
-52 267 -111 284 -105 8 3 12 2 9 -3 -3 -4 29 -16 72 -25 110 -23 776 -23 867
0 33 9 67 17 75 19 40 8 211 76 261 103 32 17 59 29 62 26 2 -2 10 2 17 11 7
8 18 15 26 15 7 0 19 6 26 13 7 6 30 21 51 32 55 29 180 124 266 202 60 56
188 195 219 238 4 6 19 26 34 46 29 39 138 216 138 224 -1 3 15 38 34 78 48
101 101 264 126 384 20 103 29 181 39 353 1 13 26 16 174 16 177 0 229 4 367
28 97 18 280 73 297 89 3 4 12 7 19 7 30 0 284 132 292 152 2 4 9 8 16 8 14 0
149 97 154 111 2 5 8 9 13 9 4 0 34 24 65 53 31 28 62 56 70 60 8 4 14 12 14
16 0 5 24 33 52 62 52 53 198 248 198 264 0 5 6 16 14 24 32 36 143 279 167
366 4 17 17 64 28 105 19 69 21 104 21 451 0 305 -3 386 -15 430 -29 105 -59
194 -67 203 -4 6 -8 16 -8 24 0 30 -150 315 -195 369 -5 7 -18 23 -27 35 -72
96 -108 138 -188 217 -134 134 -313 264 -455 330 -122 57 -184 83 -205 86 -3
0 -9 3 -15 6 -12 7 -73 28 -101 34 -10 2 -44 10 -74 18 -30 8 -77 18 -103 22
-27 3 -58 8 -68 10 -131 25 -367 22 -556 -8 -69 -11 -83 -11 -83 0 0 7 -3 13
-7 13 -5 0 -9 27 -10 59 -4 126 -100 411 -186 556 -32 53 -111 170 -123 182
-8 8 -14 18 -14 23 0 19 -239 252 -251 244 -7 -4 -9 -3 -6 3 10 16 -213 170
-226 156 -4 -3 -7 -1 -7 4 0 22 -280 140 -370 157 -14 2 -45 9 -70 15 -82 21
-247 37 -352 36 -105 -2 -236 -13 -248 -20 -4 -3 -22 -6 -41 -9 -44 -5 -198
-45 -219 -56 -13 -7 -25 4 -58 48 -23 31 -51 64 -62 72 -12 8 -35 27 -52 42
-37 32 -135 81 -198 98 -64 17 -217 21 -265 6z m1350 -3406 c-3 -5 -13 -10
-21 -10 -8 0 -14 5 -14 10 0 6 9 10 21 10 11 0 17 -4 14 -10z"/>
<path d="M1305 6173 c-121 -63 -147 -206 -55 -306 77 -86 222 -70 294 31 27
38 31 51 29 103 -2 69 -36 130 -91 162 -44 26 -137 31 -177 10z"/>
<path d="M6284 5601 c-87 -35 -127 -91 -126 -177 0 -28 8 -67 18 -85 21 -42
72 -89 95 -89 10 0 20 -4 23 -9 8 -12 94 -7 129 8 44 17 95 76 107 122 27 99
-41 218 -133 234 -12 2 -33 6 -47 8 -14 3 -43 -3 -66 -12z"/>
<path d="M6453 2021 c-144 -49 -218 -205 -163 -347 20 -54 90 -131 126 -140
13 -3 24 -9 24 -13 0 -9 33 -13 110 -14 109 0 209 72 242 176 13 41 17 136 6
143 -4 3 -6 10 -3 15 4 5 1 9 -4 9 -6 0 -10 3 -10 8 4 25 -5 44 -42 86 -22 25
-47 46 -55 46 -8 0 -14 4 -14 9 0 14 -63 32 -119 36 -27 2 -70 -5 -98 -14z"/>
</g>
</svg>
