<?xml version="1.0" encoding="utf-8"?>
<!-- Generator: Adobe Illustrator 19.0.0, SVG Export Plug-In . SVG Version: 6.00 Build 0)  -->
<svg version="1.1" id="Layer_1" xmlns="http://www.w3.org/2000/svg" xmlns:xlink="http://www.w3.org/1999/xlink" x="0px" y="0px"
	 viewBox="1808.1 55.3 2692.6 1462.4" style="enable-background:new 1808.1 55.3 2692.6 1462.4;" xml:space="preserve">
<style type="text/css">
	.st0{fill:#F7702B;}
	.st1{fill:#F43073;}
	.st2{fill:#A924A0;}
	.st3{fill:#FEC502;}
</style>
<g id="bubbles">
</g>
<path id="i1_1_" class="st0" d="M4280.6,516c9.1-4.2,19.6-3.5,31.6,2.2c12.1,5.7,22.6,14.2,31.7,25.3c9,11.2,15.3,24.1,19,38.9
	c3.6,14.8,1.5,29.1-6.3,42.9c1.2-1.2,0.6,0-1.8,3.6c-2.4,3.6-5.7,8.4-9.9,14.5c-4.2,6-9.1,13-14.5,20.8s-10.3,15.1-14.5,21.7
	c-10.9,15.7-22.8,33-35.7,52c-13,19-25.9,38.3-38.9,57.9s-25.3,38.7-37.1,57.4c-11.8,18.7-21.7,35.3-29.8,49.8
	c-8.2,14.5-14,26.1-17.7,34.8c-3.6,8.8-3.6,13.1,0,13.1h6.3c19.3-6,38.3-15.8,57-29.4c18.7-13.6,36.6-29.1,53.8-46.6
	c17.2-17.5,33.9-36,50.2-55.6c16.3-19.6,31.9-38.5,47-56.5l16.3-21.7c3.6-3.6,8.4-4.4,14.5-2.2c6,2.1,11.6,5.7,16.7,10.8
	c5.1,5.2,8.9,10.9,11.3,17.2c2.4,6.3,1.8,11.6-1.8,15.8l0.9-1.8c-30.2,39.2-63.9,79-101.3,119.4s-75.1,76-113,106.7
	c-6,4.2-13.4,9.2-22.2,14.9c-8.8,5.7-18.3,11-28.5,15.8c-10.3,4.8-21.1,8.9-32.6,12.2c-11.4,3.3-22.6,5-33.5,5
	c-23.5-0.6-39.3-9.8-47.5-27.6c-8.2-17.8-10.1-39.9-5.9-66.5c4.2-20.5,10.9-41,19.9-61.5l-0.9,0.9c12.1-30.1,29.4-65.1,52-104.9
	c22.6-39.8,46-79.6,70.1-119.4c15.7-27.1,30.9-53.5,45.7-79.1c14.8-25.6,27.3-49,37.5-70.1L4280.6,516z M4418.1,239.3
	c7.2-1.2,15.8,2.9,25.8,12.2s19.3,20.2,28,32.6c8.7,12.4,16,24.7,21.7,37.1c5.7,12.4,8,21.3,6.8,26.7c-6.6,17.5-14,32.9-22.2,46.1
	c-8.1,13.2-16.4,26.8-24.9,40.7c-8.4,13.9-17,28-25.8,42.5c-8.8,14.5-17.3,31.4-25.8,50.6c-7.2-1.8-14.9-6.2-23-13.1
	s-15.5-14.9-22.2-24c-6.7-9-11.9-18.4-15.8-28s-5.3-17.8-4.1-24.4c3-12.1,7.1-25.3,12.2-39.8c5.1-14.5,11-29.5,17.6-45.2
	s13-31.6,19-47.9c6-16.3,10.9-31.9,14.5-47L4418.1,239.3z"/>
<path id="k1_1_" class="st1" d="M4382.8,58.4c4.2-5.4,11-3.8,20.4,5c9.3,8.8,18.7,19.9,28,33.5c9.3,13.5,17.2,27.6,23.5,42
	c6.3,14.5,8.9,24.4,7.7,29.8c-24.1,40.4-53.8,81.1-89.1,122.1c-35.3,41-74.5,81.8-117.6,122.5s-89.4,81-138.8,120.7
	c-49.5,39.8-100.4,78.8-152.9,117.1c-52.4,38.3-105.8,75.5-160.1,111.7c-54.2,36.2-107.6,70.5-160.1,103.1
	c21.7,52.5,48.4,95.9,80,130.2c31.6,34.4,66.2,61.8,103.6,82.3c37.4,20.5,76.9,34.8,118.5,42.9s82.9,12.2,123.9,12.2
	c8.4,0,17.5-0.1,27.1-0.4c9.6-0.3,18.4-0.8,26.2-1.4c2.4,3,2,8.4-1.4,16.2c-3.3,7.8-8.6,16.6-15.8,26.5
	c-7.2,9.9-15.5,20.4-24.9,31.5c-9.3,11.1-18.7,21.1-28,30.1s-18,16.4-25.8,22.4c-7.9,6-13.6,9-17.2,9c-45.2,0.6-91.2-5.4-137.9-18
	s-90.3-32.9-130.7-61.1s-75.7-65-105.8-110.5s-51.3-101.4-63.3-167.7l-103.1,62.4c-27.1,36.2-50.3,68.7-69.6,97.7
	c-19.3,28.9-31.6,53.6-37.1,74.1c-3.6,6.6-11,12.7-22.2,18.4c-11.2,5.7-22.8,9.9-34.8,12.6c-12.1,2.7-22.7,3.4-32.1,2.2
	c-9.3-1.2-14-5.1-14-11.7c1.2-12.6,7.2-30.2,18.1-52.7c10.9-22.6,25-48.4,42.5-77.3c-3-4.2-5.3-9.8-6.8-16.7
	c-1.5-6.9-2.1-13.7-1.8-20.4c0.3-6.6,1.7-13.1,4-19.4c2.4-6.3,6-11.3,10.9-14.9l66-41.6l20.8-31.6c35-52.5,72.7-110,113-172.7
	c40.4-62.7,79.2-127.1,116.2-193.1c37.1-66,70.5-132.2,100.4-198.5c29.8-66.3,52-129.6,66.5-189.9v-0.9c1.2-4.2,5.3-6.3,12.2-6.3
	s15.2,1.3,24.8,4s19.8,6.3,30.3,10.9c10.5,4.5,20.5,9.3,29.8,14.5s17.3,10.3,24,15.4c6.6,5.1,10.2,9.5,10.9,13.1
	c-9.6,45.9-24.9,92.9-45.7,141.1s-44.9,96.5-72.3,144.7c-27.5,48.2-57.1,95.9-89.1,142.9c-32,47-64.2,92.3-96.8,135.7
	c54.3-39.8,108.5-81.1,162.8-123.9s106.9-85.6,157.8-128.4c51-42.8,99.1-85,144.3-126.6c45.2-41.6,86.4-81.4,123.5-119.4
	s68.9-73.2,95.4-105.8s46.1-61.2,58.8-85.9L4382.8,58.4z"/>
<path id="a1_1_" class="st2" d="M3254.2,668.9c-0.6,3.6-2.9,6.5-6.8,8.6c-3.9,2.1-8.6,3.6-14,4.5s-11,1.4-16.7,1.4
	s-10.7-0.9-14.9-2.7c8.5,5.4,16.3,11.8,23.5,19s13.2,15.2,18.1,24c4.8,8.7,8,17.6,9.5,26.7c1.5,9,0.4,17.8-3.2,26.2
	c-2.4,4.2-5.2,8.9-8.1,14c-3.1,5.2-6,10.4-9.1,15.8c-6.7,11.5-13.4,23.8-20.4,37.1c-7,13.3-13.4,26.2-19.4,38.9
	c-6,12.7-11.3,24.6-15.9,35.7c-4.5,11.2-7.4,20.6-8.6,28.5c0,1.2-0.4,2.1-1.4,2.7c-0.9,0.6-1.7,1.2-2.2,1.8h6.3
	c18.1-6,35.5-16,52.4-29.8c16.9-13.9,33.3-29.7,49.3-47.5c15.9-17.8,31.3-36.8,46.1-57s28.8-39.6,42.1-58.3
	c4.8-4.8,8.4-9.1,10.9-12.7c2.4-3.6,4.8-7.5,7.2-11.8c2.4-3,6.9-3.8,13.6-2.2c6.6,1.5,13,4.4,19,8.6s10.9,9.2,14.5,14.9
	c3.6,5.7,3.6,10.7,0,14.9l-26.2,36.2v0.9c-25.9,35.6-52.9,70.7-80.9,105.4c-28,34.7-59.2,65.9-93.6,93.6
	c-5.4,4.8-12.2,10.1-20.4,15.8c-8.1,5.7-17.2,11.2-27.1,16.3s-20.6,9.3-32.1,12.7c-11.5,3.3-23.2,4.7-35.3,4.1
	c-28.9-2.4-49.3-12.7-61.1-30.8c-11.7-18.1-16.1-40.7-13.1-67.8c-27.1,25.3-54.6,47.2-82.3,65.6s-54.2,27.9-79.6,28.5
	c-22.9-2.4-41.1-8.9-54.7-19.4c-13.6-10.6-23.7-23.1-30.3-37.5c-6.7-14.5-10.4-30-11.3-46.6c-0.9-16.6-0.4-32.1,1.4-46.6
	c2.4-13.2,5.1-24.1,8.1-32.5c6-22.3,16-46.7,29.8-73.3c13.9-26.5,30.5-53.1,49.8-79.6s40.6-52.1,63.8-76.9
	c23.2-24.7,47.8-46.7,73.7-66c25.9-19.3,52.3-34.7,79.1-46.1s53.5-17.2,80-17.2c7.8,0,15.4,0.6,22.6,1.8c7.2,1.2,15.1,3,23.5,5.4
	c14.5,4.8,25.5,12.5,33,23c7.5,10.6,12.7,22.9,15.3,37.1c2.7,14.2,3.6,29.3,2.7,45.2C3260,637.4,3257.8,653.2,3254.2,668.9z
	 M3148.3,668.9c6-3,13.1-3.6,21.3-1.8c8.1,1.8,16.4,5.1,24.9,9.9c-3-3-3.9-6.3-2.7-9.9c0.6-1.8,0.7-3.9,0.4-6.3s-0.1-4.8,0.5-7.2
	c0.6-6,0.9-12.4,0.9-19s-0.9-12.8-2.7-18.5s-4.8-10.4-9-14s-10-5.7-17.2-6.3c-22.3-0.6-45.2,7.4-68.7,24s-46.1,37.5-67.8,62.9
	c-21.7,25.3-41.5,52.4-59.2,81.4c-17.8,29-31.8,55.2-42.1,78.7c-3,6.7-6,14.9-9.1,24.9c-3,10-5.1,19.8-6.3,29.4
	c-1.2,6.7-1.8,13-1.8,19s1.4,11.2,4.1,15.4c2.7,4.2,6.8,6.9,12.2,8.1s13,0.6,22.6-1.8c9.1-2.4,20.5-9.3,34.4-20.8
	s28.5-24.9,43.9-40.3s30.4-31.8,45.2-49.3s27.3-33.2,37.5-47c9-18.1,17.3-35.7,24.8-52.9c7.5-17.2,12.8-31.8,15.8-43.9L3148.3,668.9
	z"/>
<path id="j1_1_" class="st3" d="M2400.4,696.9c-12.1,15.1-23.7,23.8-34.8,26.2c-11.2,2.4-21.4,0.8-30.8-5
	c-9.3-5.7-17.2-14.6-23.5-26.7c-6.3-12-10.9-25-13.5-38.9c-2.7-13.9-3.2-27.6-1.4-41.2c1.8-13.5,6.6-25.2,14.5-34.8
	c23.5-42.8,51.9-83.9,85-123.5c33.2-39.4,69-76.7,107.6-111.7c38.6-35,78.7-67.5,120.3-97.7c41.6-30.1,82.6-57,123-80.5
	c40.4-23.5,78.8-43.6,115.3-60.1c36.5-16.6,68.9-29.1,97.2-37.5c12.7-4.2,24.7-6.3,36.2-6.3c18.1,0,33,4,44.8,12.2
	c11.7,8.2,20.3,18.9,25.8,32.1c5.4,13.2,7.8,28.2,7.2,44.7c-0.6,16.6-3.6,33.3-9.1,50.2l0.9-0.9c-15.1,47.6-34.8,100.2-59.2,157.8
	s-52.5,117.7-84.1,180.4s-66.6,126.8-104.9,192.2s-78.7,129.6-121.2,192.6s-86.8,123.5-133,181.3c-46.1,57.9-92.8,110.9-140.2,159.2
	c-47.3,48.2-94.8,90.1-142.4,125.7c-47.6,35.6-94.4,62.4-140.2,80.5c-13.2,4.8-29.7,8.9-49.3,12.2c-19.6,3.3-38.2,5.6-55.6,6.8
	c-47.6,3-87.1-3.3-118.5-19s-55.6-36.9-72.8-63.7c-17.1-26.8-28-57.6-32.5-92.3s-4.1-69.8,1.4-105.4c9-53.1,26.5-105.8,52.4-158.3
	c25.9-52.4,58.3-99.6,97.2-141.5s83.4-75.8,133.4-101.8c50-25.9,104-38.9,161.9-38.9c18.7,0,37.1,2.4,55.2,7.2
	c18.1,4.8,33.7,12.4,47,22.6c13.2,10.2,23.4,23.2,30.3,38.9c7,15.7,9.2,34.1,6.8,55.2c-1.8,6.7-6.7,16.3-14.5,29
	S2366,942.5,2357,953c-9,10.6-17.6,18.3-25.8,23.1c-8.1,4.8-13.4,2.4-15.8-7.2c1.2-13.9-0.1-26.1-4.1-36.6
	c-3.9-10.6-9.6-19.3-17.2-26.2c-7.5-6.9-16.6-12.2-27.1-15.8c-10.6-3.6-21.6-5.4-33-5.4c-27.7,0-55.2,4.2-82.3,12.7
	c-27.2,8.4-53.1,20.2-77.8,35.3c-24.7,15.1-47.8,32.9-69.2,53.4c-21.4,20.5-40.6,42.7-57.4,66.5c-16.9,23.8-31.2,48.5-42.9,74.2
	c-11.7,25.6-19.8,51.1-24,76.4c-3.6,23.5-3.3,47,0.9,70.5c4.2,23.5,13.1,44.8,26.7,63.8s32,34.4,55.2,46.1
	c23.2,11.8,51.7,17.6,85.5,17.6c38-4.8,77.9-20.8,119.8-47.9c41.9-27.1,84.3-62.3,127.1-105.4s85.8-92.8,128.9-149.2
	c43.1-56.4,85.2-116.1,126.2-179.1s80.6-127.8,118.9-194.4s73.9-131.9,106.7-195.8c32.9-63.9,62.6-124.9,89.1-183.1
	s48.8-110.2,66.9-156c0.6-1.2,1.2-2.5,1.8-4s1.2-2.9,1.8-4.1c0.6-1.8,1.2-3.3,1.8-4.5c-23.5,10.9-52.3,27.5-86.4,49.8
	c-34.1,22.3-70.1,48.2-108.1,77.8c-38,29.5-76.3,61.7-114.9,96.3c-38.6,34.7-73.9,69.5-105.8,104.4c-32,35-59,69-81,102.2
	c-22,33.2-35.7,63-41.1,89.5V696.9L2400.4,696.9z"/>
<g id="XMLID_30_">
	<path id="XMLID_16_" class="st0" d="M2543.7,1448.5h-8.2v38.6h-8.6v-114.8h8.6v68.4h7.6l22.1-33.2h10.5l-25.2,36.4l28.1,43.3h-10.4
		L2543.7,1448.5z"/>
	<path id="XMLID_18_" class="st0" d="M2585.7,1441.5c0-10.3,2.6-18.8,7.8-25.5c5.2-6.7,12.2-10,21-10s15.8,3.3,21,10
		c5.2,6.6,7.8,15.1,7.8,25.5v11.7c0,10.5-2.6,19-7.8,25.6s-12.2,9.9-21,9.9s-15.8-3.3-21-9.9s-7.8-15.1-7.8-25.6V1441.5z
		 M2594.4,1453.3c0,8,1.7,14.6,5.2,19.9s8.4,8,14.9,8c6.3,0,11.2-2.7,14.8-8c3.5-5.3,5.3-12,5.3-19.9v-11.7c0-7.8-1.8-14.4-5.3-19.7
		c-3.5-5.3-8.5-8-14.8-8c-6.4,0-11.4,2.7-14.8,8c-3.5,5.3-5.2,11.9-5.2,19.7v11.7H2594.4z"/>
	<path id="XMLID_21_" class="st0" d="M2666.8,1407.5l0.7,12.4c2.1-4.4,4.8-7.8,8.2-10.2c3.4-2.4,7.4-3.6,12.1-3.6s8.7,1.4,11.9,4.2
		c3.2,2.8,5.6,7.1,7.1,12.8c1.9-5.3,4.7-9.5,8.2-12.5s7.8-4.6,12.8-4.6c6.8,0,12.2,2.8,15.9,8.5c3.8,5.7,5.7,14.4,5.7,26.1v46.5
		h-8.7v-46.7c0-9.8-1.3-16.6-3.9-20.6c-2.6-4-6.3-6-11.1-6c-5.1,0-9,2.2-11.9,6.6c-2.8,4.4-4.6,10-5.2,16.6v2.1v47.9h-8.7v-46.4
		c0-9.6-1.3-16.4-4-20.5s-6.4-6.1-11.2-6.1c-4.6,0-8.3,1.4-11,4.2c-2.8,2.8-4.8,6.7-6,11.6v57.3h-8.7v-79.6H2666.8z"/>
	<path id="XMLID_23_" class="st0" d="M2822.1,1454.3c0,10.5-2.2,18.8-6.6,25c-4.4,6.2-10.5,9.3-18.3,9.3c-4.4,0-8.2-0.9-11.5-2.8
		s-6-4.6-8.2-8.1v40h-8.7v-110.3h7.3l0.9,11c2.2-4,4.9-7,8.2-9.2c3.3-2.2,7.2-3.2,11.6-3.2c7.9,0,14,3.4,18.4,10.2
		c4.4,6.8,6.7,15.9,6.7,27.2v10.9H2822.1z M2813.3,1443.5c0-8.7-1.6-15.8-4.7-21.3c-3.1-5.5-7.7-8.2-13.8-8.2
		c-4.3,0-7.8,1.3-10.7,3.9c-2.8,2.6-5,6-6.5,10.2v40.2c1.6,4,3.8,7.2,6.7,9.5c2.8,2.3,6.4,3.4,10.6,3.4c6.1,0,10.7-2.4,13.8-7.3
		s4.7-11.4,4.7-19.4L2813.3,1443.5L2813.3,1443.5z"/>
	<path id="XMLID_26_" class="st0" d="M2848.6,1487.2h-8.7v-114.8h8.7V1487.2z"/>
	<path id="XMLID_28_" class="st0" d="M2894.3,1488.7c-8.4,0-15.3-3.2-20.7-9.7c-5.4-6.5-8-14.7-8-24.7v-13.2
		c0-10.1,2.7-18.4,8.1-25.1c5.4-6.6,11.8-10,19.4-10c8.2,0,14.6,3,19.1,8.9c4.5,5.9,6.8,13.9,6.8,23.9v8.7h-44.8v6.6
		c0,7.7,1.8,14.1,5.4,19.3c3.6,5.2,8.5,7.7,14.7,7.7c4.3,0,8-0.8,11.1-2.3s5.8-3.7,8-6.5l3.5,6.2c-2.4,3.1-5.4,5.5-9.1,7.4
		C2904.1,1487.8,2899.6,1488.7,2894.3,1488.7z M2893.1,1413.9c-5.4,0-9.9,2.5-13.4,7.6s-5.3,11.3-5.5,18.7h36.1v-3.4
		c0-6.6-1.5-12-4.6-16.4C2902.7,1416,2898.5,1413.9,2893.1,1413.9z"/>
	<path id="XMLID_38_" class="st0" d="M2955.1,1439.9l16.3-32.4h10.2l-21.6,39.2l22.5,40.5h-10.1l-17.1-33.7l-17.1,33.7H2928
		l22.6-40.5l-21.7-39.2h10.1L2955.1,1439.9z"/>
	<path id="XMLID_40_" class="st0" d="M3003.8,1407.5l0.7,13.2c2.1-4.7,4.8-8.3,8.3-10.8c3.4-2.6,7.5-3.8,12.1-3.8
		c7,0,12.4,2.6,16.1,7.9c3.7,5.3,5.6,13.5,5.6,24.6v48.6h-8.7v-48.5c0-9.1-1.3-15.5-3.9-19.1c-2.6-3.7-6.4-5.5-11.4-5.5
		c-4.4,0-8.1,1.5-11.1,4.5s-5.2,6.9-6.7,11.9v56.8h-8.7v-79.6h7.7V1407.5z"/>
	<path id="XMLID_42_" class="st0" d="M3106.7,1487.2c-0.4-2.7-0.8-5-1-6.8s-0.3-3.6-0.3-5.4c-2.4,4-5.4,7.2-9.2,9.8s-8,3.9-12.6,3.9
		c-6.5,0-11.4-2-15-6.1c-3.5-4.1-5.3-9.6-5.3-16.6c0-7.4,2.6-13.3,7.7-17.7c5.1-4.4,12-6.6,20.8-6.6h13.7v-9.8
		c0-5.6-1.4-10.1-4.2-13.2c-2.8-3.2-6.7-4.8-11.7-4.8c-4.7,0-8.5,1.5-11.5,4.6c-3,3-4.5,6.8-4.5,11.2l-8.1-0.1l-0.1-0.4
		c-0.2-6,2-11.3,6.7-16s10.7-7,18-7c7.2,0,13.1,2.2,17.5,6.7s6.7,10.9,6.7,19.2v39.1c0,2.8,0.1,5.6,0.4,8.2c0.2,2.6,0.7,5.3,1.3,7.8
		L3106.7,1487.2L3106.7,1487.2z M3084.7,1480.8c4.8,0,9.1-1.4,12.8-4.2c3.7-2.8,6.4-6.4,7.9-10.8v-17.2h-13.9
		c-5.9,0-10.7,1.7-14.2,5.1s-5.3,7.6-5.3,12.6c0,4.3,1.1,7.8,3.3,10.5C3077.6,1479.4,3080.7,1480.8,3084.7,1480.8z M3097.4,1376.7
		h10.6l0.1,0.4l-16,19.2h-7.4L3097.4,1376.7z"/>
	<path id="XMLID_46_" class="st0" d="M3178.1,1387.2v20.3h13.6v7.5h-13.6v51.6c0,5.1,0.7,8.8,2.2,11c1.4,2.2,3.3,3.2,5.7,3.2
		c1.2,0,2.3-0.1,3.4-0.2c1.1-0.1,2.4-0.4,3.8-0.7l1.2,6.8c-1.2,0.6-2.7,1.1-4.5,1.4s-3.7,0.6-5.6,0.6c-4.6,0-8.3-1.8-10.9-5.3
		s-3.9-9.1-3.9-16.8V1415h-10.8v-7.5h10.8v-20.3H3178.1z"/>
	<path id="XMLID_48_" class="st0" d="M3233.4,1488.7c-8.4,0-15.3-3.2-20.7-9.7s-8-14.7-8-24.7v-13.2c0-10.1,2.7-18.4,8.1-25.1
		c5.4-6.6,11.8-10,19.4-10c8.2,0,14.6,3,19.1,8.9s6.8,13.9,6.8,23.9v8.7h-44.8v6.6c0,7.7,1.8,14.1,5.4,19.3s8.5,7.7,14.7,7.7
		c4.3,0,8-0.8,11.1-2.3s5.8-3.7,8-6.5l3.5,6.2c-2.4,3.1-5.4,5.5-9.1,7.4C3243.1,1487.8,3238.6,1488.7,3233.4,1488.7z M3232.1,1413.9
		c-5.4,0-9.9,2.5-13.4,7.6s-5.3,11.3-5.5,18.7h36.1v-3.4c0-6.6-1.5-12-4.6-16.4C3241.7,1416,3237.5,1413.9,3232.1,1413.9z"/>
	<path id="XMLID_51_" class="st0" d="M3281.9,1420.1c2.2-4.5,5-7.9,8.5-10.4s7.5-3.7,12-3.7c6.9,0,12.2,2.6,15.9,7.8
		c3.7,5.2,5.6,13.2,5.6,24.2v49.2h-8.7v-49.3c0-8.5-1.3-14.6-3.9-18.3c-2.6-3.7-6.3-5.5-11.1-5.5c-4.3,0-8.1,1.4-11.1,4.2
		c-3.1,2.8-5.4,6.6-7.1,11.3v57.6h-8.7v-114.8h8.7L3281.9,1420.1L3281.9,1420.1z"/>
	<path id="XMLID_53_" class="st0" d="M3339.6,1441.5c0-10.3,2.6-18.8,7.8-25.5s12.2-10,21-10s15.8,3.3,21,10
		c5.2,6.6,7.8,15.1,7.8,25.5v11.7c0,10.5-2.6,19-7.8,25.6s-12.2,9.9-21,9.9s-15.8-3.3-21-9.9s-7.8-15.1-7.8-25.6V1441.5z
		 M3348.4,1453.3c0,8,1.7,14.6,5.2,19.9s8.4,8,14.9,8c6.3,0,11.2-2.7,14.8-8c3.5-5.3,5.3-12,5.3-19.9v-11.7c0-7.8-1.8-14.4-5.3-19.7
		c-3.5-5.3-8.5-8-14.8-8c-6.4,0-11.4,2.7-14.8,8c-3.5,5.3-5.2,11.9-5.2,19.7L3348.4,1453.3L3348.4,1453.3z"/>
	<path id="XMLID_56_" class="st0" d="M3426.1,1387.2v20.3h13.6v7.5h-13.6v51.6c0,5.1,0.7,8.8,2.2,11c1.4,2.2,3.3,3.2,5.7,3.2
		c1.2,0,2.3-0.1,3.4-0.2c1.1-0.1,2.4-0.4,3.8-0.7l1.2,6.8c-1.2,0.6-2.7,1.1-4.5,1.4s-3.7,0.6-5.6,0.6c-4.6,0-8.3-1.8-10.9-5.3
		s-3.9-9.1-3.9-16.8V1415h-10.8v-7.5h10.8v-20.3H3426.1z"/>
	<path id="XMLID_58_" class="st0" d="M3481.4,1488.7c-8.4,0-15.3-3.2-20.7-9.7s-8-14.7-8-24.7v-13.2c0-10.1,2.7-18.4,8.1-25.1
		c5.4-6.6,11.8-10,19.4-10c8.2,0,14.6,3,19.1,8.9s6.8,13.9,6.8,23.9v8.7h-44.8v6.6c0,7.7,1.8,14.1,5.4,19.3s8.5,7.7,14.7,7.7
		c4.3,0,8-0.8,11.1-2.3s5.8-3.7,8-6.5l3.5,6.2c-2.4,3.1-5.4,5.5-9.1,7.4C3491.1,1487.8,3486.6,1488.7,3481.4,1488.7z M3480.1,1413.9
		c-5.4,0-9.9,2.5-13.4,7.6s-5.3,11.3-5.5,18.7h36.1v-3.4c0-6.6-1.5-12-4.6-16.4C3489.7,1416,3485.5,1413.9,3480.1,1413.9z"/>
	<path id="XMLID_61_" class="st0" d="M3528.9,1407.5l0.7,13.2c2.1-4.7,4.8-8.3,8.3-10.8c3.4-2.6,7.5-3.8,12.1-3.8
		c7,0,12.4,2.6,16.1,7.9c3.7,5.3,5.6,13.5,5.6,24.6v48.6h-8.7v-48.5c0-9.1-1.3-15.5-3.9-19.1c-2.6-3.7-6.4-5.5-11.4-5.5
		c-4.4,0-8.1,1.5-11.1,4.5s-5.2,6.9-6.7,11.9v56.8h-8.7v-79.6h7.7V1407.5z"/>
	<path id="XMLID_63_" class="st0" d="M3628.8,1468.2c0-3.6-1.2-6.8-3.5-9.4s-6.6-5.4-12.8-8.3c-8-3.3-13.8-6.7-17.5-10.2
		s-5.5-8-5.5-13.6c0-5.7,2.2-10.5,6.6-14.6c4.4-4,10.1-6,17.1-6c7.4,0,13.3,2.2,17.6,6.7s6.4,10,6.2,16.7l-0.1,0.4h-8.2
		c0-4.3-1.4-8.1-4.2-11.3c-2.8-3.2-6.6-4.8-11.4-4.8c-4.9,0-8.6,1.3-11.1,3.8c-2.6,2.5-3.8,5.4-3.8,8.8c0,3.5,1,6.4,3,8.5
		s6.4,4.8,13,8.1c7.8,3.2,13.6,6.7,17.5,10.4c3.9,3.8,5.8,8.5,5.8,14.2c0,6.3-2.2,11.4-6.7,15.3s-10.4,5.8-17.7,5.8
		c-8.1,0-14.4-2.3-18.9-6.9c-4.6-4.6-6.7-10.1-6.5-16.5l0.1-0.4h8.1c0.3,5.7,2.1,9.9,5.4,12.5c3.3,2.6,7.2,3.9,11.7,3.9
		c4.9,0,8.7-1.3,11.5-3.8C3627.5,1474.9,3628.8,1471.8,3628.8,1468.2z"/>
	<path id="XMLID_65_" class="st0" d="M3670.7,1448.5h-8.2v38.6h-8.6v-114.8h8.6v68.4h7.6l22.1-33.2h10.5l-25.2,36.4l28.1,43.3h-10.4
		L3670.7,1448.5z"/>
	<path id="XMLID_67_" class="st0" d="M3756.9,1487.2c-0.4-2.7-0.8-5-1-6.8s-0.3-3.6-0.3-5.4c-2.4,4-5.4,7.2-9.2,9.8s-8,3.9-12.6,3.9
		c-6.5,0-11.4-2-15-6.1c-3.5-4.1-5.3-9.6-5.3-16.6c0-7.4,2.6-13.3,7.7-17.7c5.1-4.4,12-6.6,20.8-6.6h13.7v-9.8
		c0-5.6-1.4-10.1-4.2-13.2c-2.8-3.2-6.7-4.8-11.7-4.8c-4.7,0-8.5,1.5-11.5,4.6c-3,3-4.5,6.8-4.5,11.2l-8.1-0.1l-0.1-0.4
		c-0.2-6,2-11.3,6.7-16s10.7-7,18-7c7.2,0,13.1,2.2,17.5,6.7s6.7,10.9,6.7,19.2v39.1c0,2.8,0.1,5.6,0.4,8.2c0.2,2.6,0.7,5.3,1.3,7.8
		L3756.9,1487.2L3756.9,1487.2z M3734.8,1480.8c4.8,0,9.1-1.4,12.8-4.2c3.7-2.8,6.4-6.4,7.9-10.8v-17.2h-13.9
		c-5.9,0-10.7,1.7-14.2,5.1s-5.3,7.6-5.3,12.6c0,4.3,1.1,7.8,3.3,10.5C3727.7,1479.4,3730.8,1480.8,3734.8,1480.8z M3747.6,1376.7
		h10.6l0.1,0.4l-16,19.2h-7.4L3747.6,1376.7z"/>
	<path id="XMLID_71_" class="st0" d="M3853.1,1468.2c0-3.6-1.2-6.8-3.5-9.4s-6.6-5.4-12.8-8.3c-8-3.3-13.8-6.7-17.5-10.2
		s-5.5-8-5.5-13.6c0-5.7,2.2-10.5,6.6-14.6c4.4-4,10.1-6,17.1-6c7.4,0,13.3,2.2,17.6,6.7s6.4,10,6.2,16.7l-0.1,0.4h-8.2
		c0-4.3-1.4-8.1-4.2-11.3c-2.8-3.2-6.6-4.8-11.4-4.8c-4.9,0-8.6,1.3-11.1,3.8c-2.6,2.5-3.8,5.4-3.8,8.8c0,3.5,1,6.4,3,8.5
		s6.4,4.8,13,8.1c7.8,3.2,13.6,6.7,17.5,10.4c3.9,3.8,5.8,8.5,5.8,14.2c0,6.3-2.2,11.4-6.7,15.3s-10.4,5.8-17.7,5.8
		c-8.1,0-14.4-2.3-18.9-6.9c-4.6-4.6-6.7-10.1-6.5-16.5l0.1-0.4h8.1c0.3,5.7,2.1,9.9,5.4,12.5c3.3,2.6,7.2,3.9,11.7,3.9
		c4.9,0,8.7-1.3,11.5-3.8C3851.7,1474.9,3853.1,1471.8,3853.1,1468.2z"/>
	<path id="XMLID_73_" class="st0" d="M3890.8,1387.2v20.3h13.6v7.5h-13.6v51.6c0,5.1,0.7,8.8,2.2,11c1.4,2.2,3.3,3.2,5.7,3.2
		c1.2,0,2.3-0.1,3.4-0.2c1.1-0.1,2.4-0.4,3.8-0.7l1.2,6.8c-1.2,0.6-2.7,1.1-4.5,1.4s-3.7,0.6-5.6,0.6c-4.6,0-8.3-1.8-10.9-5.3
		s-3.9-9.1-3.9-16.8V1415h-10.8v-7.5h10.8v-20.3H3890.8z"/>
	<path id="XMLID_75_" class="st0" d="M3961.4,1487.2c-0.4-2.7-0.8-5-1-6.8s-0.3-3.6-0.3-5.4c-2.4,4-5.4,7.2-9.2,9.8s-8,3.9-12.6,3.9
		c-6.5,0-11.4-2-15-6.1c-3.5-4.1-5.3-9.6-5.3-16.6c0-7.4,2.6-13.3,7.7-17.7c5.1-4.4,12-6.6,20.8-6.6h13.7v-9.8
		c0-5.6-1.4-10.1-4.2-13.2c-2.8-3.2-6.7-4.8-11.7-4.8c-4.7,0-8.5,1.5-11.5,4.6c-3,3-4.5,6.8-4.5,11.2l-8.1-0.1l-0.1-0.4
		c-0.2-6,2-11.3,6.7-16s10.7-7,18-7c7.2,0,13.1,2.2,17.5,6.7s6.7,10.9,6.7,19.2v39.1c0,2.8,0.1,5.6,0.4,8.2c0.2,2.6,0.7,5.3,1.3,7.8
		L3961.4,1487.2L3961.4,1487.2z M3939.4,1480.8c4.8,0,9.1-1.4,12.8-4.2c3.7-2.8,6.4-6.4,7.9-10.8v-17.2h-13.9
		c-5.9,0-10.7,1.7-14.2,5.1s-5.3,7.6-5.3,12.6c0,4.3,1.1,7.8,3.3,10.5C3932.3,1479.4,3935.4,1480.8,3939.4,1480.8z"/>
	<path id="XMLID_78_" class="st0" d="M4018.9,1415.5l-5.7-0.4c-4,0-7.4,1.4-10,4.2c-2.7,2.8-4.6,6.6-5.9,11.4v56.5h-8.7v-79.6h7.7
		l1,13.2c1.8-4.6,4.3-8.2,7.3-10.8c3-2.6,6.5-3.9,10.6-3.9c0.9,0,1.8,0.1,2.7,0.3c0.9,0.2,1.6,0.4,2.2,0.6L4018.9,1415.5z"/>
	<path id="XMLID_80_" class="st0" d="M4027,1441.5c0-10.3,2.6-18.8,7.8-25.5s12.2-10,21-10s15.8,3.3,21,10
		c5.2,6.6,7.8,15.1,7.8,25.5v11.7c0,10.5-2.6,19-7.8,25.6s-12.2,9.9-21,9.9s-15.8-3.3-21-9.9s-7.8-15.1-7.8-25.6V1441.5z
		 M4035.8,1453.3c0,8,1.7,14.6,5.2,19.9s8.4,8,14.9,8c6.3,0,11.2-2.7,14.8-8c3.5-5.3,5.3-12,5.3-19.9v-11.7c0-7.8-1.8-14.4-5.3-19.7
		c-3.5-5.3-8.5-8-14.8-8c-6.4,0-11.4,2.7-14.8,8c-3.5,5.3-5.2,11.9-5.2,19.7L4035.8,1453.3L4035.8,1453.3z"/>
	<path id="XMLID_83_" class="st0" d="M4138.3,1468.2c0-3.6-1.2-6.8-3.5-9.4c-2.3-2.6-6.6-5.4-12.8-8.3c-8-3.3-13.8-6.7-17.5-10.2
		c-3.7-3.5-5.5-8-5.5-13.6c0-5.7,2.2-10.5,6.6-14.6c4.4-4,10.1-6,17.1-6c7.4,0,13.3,2.2,17.6,6.7c4.3,4.5,6.4,10,6.2,16.7l-0.1,0.4
		h-8.2c0-4.3-1.4-8.1-4.2-11.3c-2.8-3.2-6.6-4.8-11.4-4.8c-4.9,0-8.6,1.3-11.1,3.8c-2.6,2.5-3.8,5.4-3.8,8.8c0,3.5,1,6.4,3,8.5
		s6.4,4.8,13,8.1c7.8,3.2,13.6,6.7,17.5,10.4c3.9,3.8,5.8,8.5,5.8,14.2c0,6.3-2.2,11.4-6.7,15.3s-10.4,5.8-17.7,5.8
		c-8.1,0-14.4-2.3-18.9-6.9c-4.6-4.6-6.7-10.1-6.5-16.5l0.1-0.4h8.1c0.3,5.7,2.1,9.9,5.4,12.5c3.3,2.6,7.2,3.9,11.7,3.9
		c4.9,0,8.7-1.3,11.5-3.8C4136.9,1474.9,4138.3,1471.8,4138.3,1468.2z"/>
	<path id="XMLID_85_" class="st0" d="M4176,1387.2v20.3h13.6v7.5H4176v51.6c0,5.1,0.7,8.8,2.2,11c1.4,2.2,3.3,3.2,5.7,3.2
		c1.2,0,2.3-0.1,3.4-0.2s2.4-0.4,3.8-0.7l1.2,6.8c-1.2,0.6-2.7,1.1-4.5,1.4c-1.8,0.3-3.7,0.6-5.6,0.6c-4.6,0-8.3-1.8-10.9-5.3
		c-2.6-3.5-3.9-9.1-3.9-16.8V1415h-10.8v-7.5h10.8v-20.3H4176z"/>
	<path id="XMLID_87_" class="st0" d="M4215.7,1487.2h-8.7v-114.8h8.7V1487.2z"/>
	<path id="XMLID_89_" class="st0" d="M4245.8,1384.9h-8.7v-12.5h8.7V1384.9z M4245.8,1487.2h-8.7v-79.6h8.7V1487.2z"/>
	<path id="XMLID_92_" class="st0" d="M4285.8,1467.1l1.7,7.7h0.4l1.9-7.7l16.8-59.5h8.9l-24.4,79.6h-6.8l-24.5-79.6h9L4285.8,1467.1
		z"/>
	<path id="XMLID_94_" class="st0" d="M4323.5,1441.5c0-10.3,2.6-18.8,7.8-25.5c5.2-6.7,12.2-10,21-10c8.8,0,15.8,3.3,21,10
		c5.2,6.6,7.8,15.1,7.8,25.5v11.7c0,10.5-2.6,19-7.8,25.6c-5.2,6.6-12.2,9.9-21,9.9c-8.8,0-15.8-3.3-21-9.9
		c-5.2-6.6-7.8-15.1-7.8-25.6V1441.5z M4332.3,1453.3c0,8,1.7,14.6,5.2,19.9s8.4,8,14.9,8c6.3,0,11.2-2.7,14.8-8
		c3.5-5.3,5.3-12,5.3-19.9v-11.7c0-7.8-1.8-14.4-5.3-19.7c-3.5-5.3-8.5-8-14.8-8c-6.4,0-11.4,2.7-14.8,8c-3.5,5.3-5.2,11.9-5.2,19.7
		v11.7H4332.3z"/>
	<path id="XMLID_97_" class="st0" d="M4434.8,1468.2c0-3.6-1.2-6.8-3.5-9.4c-2.3-2.6-6.6-5.4-12.8-8.3c-8-3.3-13.8-6.7-17.5-10.2
		c-3.7-3.5-5.5-8-5.5-13.6c0-5.7,2.2-10.5,6.6-14.6c4.4-4,10.1-6,17.1-6c7.4,0,13.3,2.2,17.6,6.7c4.3,4.5,6.4,10,6.2,16.7l-0.1,0.4
		h-8.2c0-4.3-1.4-8.1-4.2-11.3c-2.8-3.2-6.6-4.8-11.4-4.8c-4.9,0-8.6,1.3-11.1,3.8c-2.6,2.5-3.8,5.4-3.8,8.8c0,3.5,1,6.4,3,8.5
		s6.4,4.8,13,8.1c7.8,3.2,13.6,6.7,17.5,10.4c3.9,3.8,5.8,8.5,5.8,14.2c0,6.3-2.2,11.4-6.7,15.3s-10.4,5.8-17.7,5.8
		c-8.1,0-14.4-2.3-18.9-6.9c-4.6-4.6-6.7-10.1-6.5-16.5l0.1-0.4h8.1c0.3,5.7,2.1,9.9,5.4,12.5c3.3,2.6,7.2,3.9,11.7,3.9
		c4.9,0,8.7-1.3,11.5-3.8C4433.4,1474.9,4434.8,1471.8,4434.8,1468.2z"/>
	<path id="XMLID_99_" class="st0" d="M4472.6,1387.2v20.3h13.6v7.5h-13.6v51.6c0,5.1,0.7,8.8,2.2,11c1.4,2.2,3.3,3.2,5.7,3.2
		c1.2,0,2.3-0.1,3.4-0.2s2.4-0.4,3.8-0.7l1.2,6.8c-1.2,0.6-2.7,1.1-4.5,1.4c-1.8,0.3-3.7,0.6-5.6,0.6c-4.6,0-8.3-1.8-10.9-5.3
		c-2.6-3.5-3.9-9.1-3.9-16.8V1415h-11v-7.5h10.8v-20.3H4472.6z M4491.8,1381.2l-5.7,15.4h-4.8l3.4-15.6v-8.8h7.2v9H4491.8z"/>
</g>
<g id="XMLID_15_">
</g>
<g id="XMLID_102_">
</g>
<g id="XMLID_103_">
</g>
<g id="XMLID_104_">
</g>
<g id="XMLID_105_">
</g>
<g id="XMLID_106_">
</g>
<g id="XMLID_107_">
</g>
<g id="XMLID_108_">
</g>
<g id="XMLID_109_">
</g>
<g id="XMLID_110_">
</g>
<g id="XMLID_111_">
</g>
<g id="XMLID_113_">
</g>
<g id="XMLID_114_">
</g>
<g id="XMLID_115_">
</g>
<g id="XMLID_119_">
</g>
</svg>
