<?xml version="1.0" encoding="utf-8"?>
<!-- Generator: Adobe Illustrator 19.0.0, SVG Export Plug-In . SVG Version: 6.00 Build 0)  -->
<svg version="1.1" xmlns="http://www.w3.org/2000/svg" xmlns:xlink="http://www.w3.org/1999/xlink" x="0px" y="0px"
	 viewBox="0 0 2692.5 1431.9" style="enable-background:new 0 0 2692.5 1431.9;" xml:space="preserve">
<style type="text/css">
	.st0{fill:#F7702B;}
	.st1{fill:#F43073;}
	.st2{fill:#A924A0;}
	.st3{fill:#FEC502;}
</style>
<g id="bubbles">
</g>
<g id="jaki">
	<path id="i1_1_" class="st0" d="M2472.5,460.7c9.1-4.2,19.6-3.5,31.6,2.2c12.1,5.7,22.6,14.2,31.7,25.3c9,11.2,15.3,24.1,19,38.9
		c3.6,14.8,1.5,29.1-6.3,42.9c1.2-1.2,0.6,0-1.8,3.6c-2.4,3.6-5.7,8.4-9.9,14.5s-9.1,13-14.5,20.8c-5.4,7.8-10.3,15.1-14.5,21.7
		c-10.9,15.7-22.8,33-35.7,52c-13,19-25.9,38.3-38.9,57.9c-13,19.6-25.3,38.7-37.1,57.4c-11.8,18.7-21.7,35.3-29.8,49.8
		c-8.2,14.5-14,26.1-17.7,34.8c-3.6,8.8-3.6,13.1,0,13.1h6.3c19.3-6,38.3-15.8,57-29.4c18.7-13.6,36.6-29.1,53.8-46.6
		c17.2-17.5,33.9-36,50.2-55.6c16.3-19.6,31.9-38.5,47-56.5l16.3-21.7c3.6-3.6,8.4-4.4,14.5-2.2c6,2.1,11.6,5.7,16.7,10.8
		c5.1,5.2,8.9,10.9,11.3,17.2c2.4,6.3,1.8,11.6-1.8,15.8l0.9-1.8c-30.2,39.2-63.9,79-101.3,119.4c-37.4,40.4-75.1,76-113,106.7
		c-6,4.2-13.4,9.2-22.2,14.9c-8.8,5.7-18.3,11-28.5,15.8c-10.3,4.8-21.1,8.9-32.6,12.2c-11.4,3.3-22.6,5-33.5,5
		c-23.5-0.6-39.3-9.8-47.5-27.6c-8.2-17.8-10.1-39.9-5.9-66.5c4.2-20.5,10.9-41,19.9-61.5l-0.9,0.9c12.1-30.1,29.4-65.1,52-104.9
		c22.6-39.8,46-79.6,70.1-119.4c15.7-27.1,30.9-53.5,45.7-79.1c14.8-25.6,27.3-49,37.5-70.1L2472.5,460.7z M2609.9,184
		c7.2-1.2,15.8,2.9,25.8,12.2c10,9.3,19.3,20.2,28,32.6c8.7,12.4,16,24.7,21.7,37.1c5.7,12.4,8,21.3,6.8,26.7
		c-6.6,17.5-14,32.9-22.2,46.1c-8.1,13.2-16.4,26.8-24.9,40.7c-8.4,13.9-17,28-25.8,42.5c-8.8,14.5-17.3,31.4-25.8,50.6
		c-7.2-1.8-14.9-6.2-23-13.1s-15.5-14.9-22.2-24c-6.7-9-11.9-18.4-15.8-28c-3.9-9.6-5.3-17.8-4.1-24.4c3-12.1,7.1-25.3,12.2-39.8
		c5.1-14.5,11-29.5,17.6-45.2c6.6-15.7,13-31.6,19-47.9c6-16.3,10.9-31.9,14.5-47L2609.9,184z"/>
	<path id="k1_1_" class="st1" d="M2574.7,3.1c4.2-5.4,11-3.8,20.4,5c9.3,8.8,18.7,19.9,28,33.5c9.3,13.5,17.2,27.6,23.5,42
		c6.3,14.5,8.9,24.4,7.7,29.8c-24.1,40.4-53.8,81.1-89.1,122.1c-35.3,41-74.5,81.8-117.6,122.5c-43.1,40.7-89.4,81-138.8,120.7
		c-49.5,39.8-100.4,78.8-152.9,117.1c-52.4,38.3-105.8,75.5-160.1,111.7c-54.2,36.2-107.6,70.5-160.1,103.1
		c21.7,52.5,48.4,95.9,80,130.2c31.6,34.4,66.2,61.8,103.6,82.3c37.4,20.5,76.9,34.8,118.5,42.9c41.6,8.1,82.9,12.2,123.9,12.2
		c8.4,0,17.5-0.1,27.1-0.4c9.6-0.3,18.4-0.8,26.2-1.4c2.4,3,2,8.4-1.4,16.2s-8.6,16.6-15.8,26.5c-7.2,9.9-15.5,20.4-24.9,31.5
		c-9.3,11.1-18.7,21.1-28,30.1c-9.3,9-18,16.4-25.8,22.4c-7.9,6-13.6,9-17.2,9c-45.2,0.6-91.2-5.4-137.9-18
		c-46.7-12.6-90.3-32.9-130.7-61.1c-40.4-28.2-75.7-65-105.8-110.5c-30.1-45.5-51.3-101.4-63.3-167.7l-103.1,62.4
		c-27.1,36.2-50.3,68.7-69.6,97.7c-19.3,28.9-31.6,53.6-37.1,74.1c-3.6,6.6-11,12.7-22.2,18.4c-11.2,5.7-22.8,9.9-34.8,12.6
		c-12.1,2.7-22.7,3.4-32.1,2.2c-9.3-1.2-14-5.1-14-11.7c1.2-12.6,7.2-30.2,18.1-52.7c10.9-22.6,25-48.4,42.5-77.3
		c-3-4.2-5.3-9.8-6.8-16.7c-1.5-6.9-2.1-13.7-1.8-20.3c0.3-6.6,1.7-13.1,4-19.4c2.4-6.3,6-11.3,10.9-14.9l66-41.6l20.8-31.6
		c35-52.5,72.7-110,113-172.7c40.4-62.7,79.2-127.1,116.2-193.1c37.1-66,70.5-132.2,100.4-198.5c29.8-66.3,52-129.6,66.5-189.9v-0.9
		c1.2-4.2,5.3-6.3,12.2-6.3c6.9,0,15.2,1.3,24.8,4c9.6,2.7,19.8,6.3,30.3,10.9c10.5,4.5,20.5,9.3,29.8,14.5
		c9.3,5.2,17.3,10.3,24,15.4c6.6,5.1,10.2,9.5,10.9,13.1c-9.6,45.9-24.9,92.9-45.7,141.1c-20.8,48.2-44.9,96.5-72.3,144.7
		c-27.5,48.2-57.1,95.9-89.1,142.9c-32,47-64.2,92.3-96.8,135.7c54.3-39.8,108.5-81.1,162.8-123.9s106.9-85.6,157.8-128.4
		c51-42.8,99.1-85,144.3-126.6c45.2-41.6,86.4-81.4,123.5-119.4c37.1-38,68.9-73.2,95.4-105.8s46.1-61.2,58.8-85.9L2574.7,3.1z"/>
	<path id="a1_1_" class="st2" d="M1446,613.6c-0.6,3.6-2.9,6.5-6.8,8.6c-3.9,2.1-8.6,3.6-14,4.5c-5.4,0.9-11,1.4-16.7,1.4
		c-5.7,0-10.7-0.9-14.9-2.7c8.5,5.4,16.3,11.8,23.5,19c7.2,7.2,13.2,15.2,18.1,24c4.8,8.7,8,17.6,9.5,26.7c1.5,9,0.4,17.8-3.2,26.2
		c-2.4,4.2-5.2,8.9-8.1,14c-3.1,5.2-6,10.4-9.1,15.8c-6.7,11.5-13.4,23.8-20.3,37.1c-7,13.3-13.4,26.2-19.4,38.9
		c-6,12.7-11.3,24.6-15.9,35.7c-4.5,11.2-7.4,20.6-8.6,28.5c0,1.2-0.4,2.1-1.4,2.7c-0.9,0.6-1.7,1.2-2.2,1.8h6.3
		c18.1-6,35.5-16,52.4-29.8c16.9-13.9,33.3-29.7,49.3-47.5c15.9-17.8,31.3-36.8,46.1-57c14.8-20.2,28.8-39.6,42.1-58.3
		c4.8-4.8,8.4-9.1,10.9-12.7c2.4-3.6,4.8-7.5,7.2-11.8c2.4-3,6.9-3.8,13.6-2.2c6.6,1.5,13,4.4,19,8.6c6,4.2,10.9,9.2,14.5,14.9
		s3.6,10.7,0,14.9l-26.2,36.2v0.9c-25.9,35.6-52.9,70.7-80.9,105.4s-59.2,65.9-93.6,93.6c-5.4,4.8-12.2,10.1-20.4,15.8
		c-8.1,5.7-17.2,11.2-27.1,16.3s-20.6,9.3-32.1,12.7c-11.5,3.3-23.2,4.7-35.3,4.1c-28.9-2.4-49.3-12.7-61-30.8
		c-11.7-18.1-16.1-40.7-13.1-67.8c-27.1,25.3-54.6,47.2-82.3,65.6c-27.7,18.4-54.2,27.9-79.6,28.5c-22.9-2.4-41.1-8.9-54.7-19.4
		c-13.6-10.6-23.7-23.1-30.3-37.5c-6.7-14.5-10.4-30-11.3-46.6c-0.9-16.6-0.4-32.1,1.4-46.6c2.4-13.2,5.1-24.1,8.1-32.5
		c6-22.3,16-46.7,29.8-73.3c13.9-26.5,30.5-53.1,49.8-79.6c19.3-26.5,40.6-52.1,63.8-76.9c23.2-24.7,47.8-46.7,73.7-66
		c25.9-19.3,52.3-34.7,79.1-46.1c26.8-11.4,53.5-17.2,80-17.2c7.8,0,15.4,0.6,22.6,1.8c7.2,1.2,15.1,3,23.5,5.4
		c14.5,4.8,25.5,12.5,33,23c7.5,10.6,12.7,22.9,15.3,37.1c2.7,14.2,3.6,29.3,2.7,45.2C1451.9,582.1,1449.6,597.9,1446,613.6z
		 M1340.2,613.6c6-3,13.1-3.6,21.3-1.8s16.4,5.1,24.9,9.9c-3-3-3.9-6.3-2.7-9.9c0.6-1.8,0.7-3.9,0.4-6.3c-0.3-2.4-0.1-4.8,0.5-7.2
		c0.6-6,0.9-12.4,0.9-19c0-6.6-0.9-12.8-2.7-18.5c-1.8-5.7-4.8-10.4-9-14c-4.2-3.6-10-5.7-17.2-6.3c-22.3-0.6-45.2,7.4-68.7,24
		c-23.5,16.6-46.1,37.5-67.8,62.9c-21.7,25.3-41.5,52.4-59.2,81.4c-17.8,29-31.8,55.2-42.1,78.7c-3,6.7-6,14.9-9.1,24.9
		c-3,10-5.1,19.8-6.3,29.4c-1.2,6.7-1.8,13-1.8,19c0,6,1.4,11.2,4.1,15.4s6.8,6.9,12.2,8.1c5.4,1.2,13,0.6,22.6-1.8
		c9.1-2.4,20.5-9.3,34.4-20.8c13.9-11.4,28.5-24.9,43.9-40.3s30.4-31.8,45.2-49.3c14.8-17.5,27.3-33.2,37.5-47
		c9-18.1,17.3-35.7,24.8-52.9c7.5-17.2,12.8-31.8,15.8-43.9L1340.2,613.6z"/>
	<path id="j1_1_" class="st3" d="M592.3,641.6c-12.1,15.1-23.7,23.8-34.8,26.2c-11.2,2.4-21.4,0.8-30.8-5
		c-9.3-5.7-17.2-14.6-23.5-26.7c-6.3-12-10.9-25-13.5-38.9c-2.7-13.9-3.2-27.6-1.4-41.2c1.8-13.5,6.6-25.2,14.5-34.8
		c23.5-42.8,51.9-83.9,85-123.5c33.2-39.4,69-76.7,107.6-111.7c38.6-35,78.7-67.5,120.3-97.7c41.6-30.1,82.6-57,123-80.5
		c40.4-23.5,78.8-43.6,115.3-60.1c36.5-16.6,68.9-29.1,97.2-37.5c12.7-4.2,24.7-6.3,36.2-6.3c18.1,0,33,4,44.8,12.2
		c11.7,8.2,20.3,18.9,25.8,32.1c5.4,13.2,7.8,28.2,7.2,44.7c-0.6,16.6-3.6,33.3-9.1,50.2l0.9-0.9c-15.1,47.6-34.8,100.2-59.2,157.8
		c-24.4,57.6-52.5,117.7-84.1,180.4s-66.6,126.8-104.9,192.2c-38.3,65.4-78.7,129.6-121.2,192.6c-42.5,63-86.8,123.5-133,181.3
		c-46.1,57.9-92.8,110.9-140.2,159.2c-47.3,48.2-94.8,90.1-142.4,125.7c-47.6,35.6-94.4,62.4-140.2,80.5
		c-13.2,4.8-29.7,8.9-49.3,12.2c-19.6,3.3-38.2,5.6-55.6,6.8c-47.6,3-87.1-3.3-118.5-19c-31.4-15.7-55.6-36.9-72.8-63.7
		c-17.1-26.8-28-57.6-32.5-92.3s-4.1-69.8,1.4-105.4c9-53.1,26.5-105.8,52.4-158.3c25.9-52.4,58.3-99.6,97.2-141.5
		c38.9-41.9,83.4-75.8,133.4-101.8c50-25.9,104-38.9,161.9-38.9c18.7,0,37.1,2.4,55.2,7.2c18.1,4.8,33.7,12.4,47,22.6
		c13.2,10.2,23.4,23.2,30.3,38.9c7,15.7,9.2,34.1,6.8,55.2c-1.8,6.7-6.7,16.3-14.5,29s-16.3,24.3-25.3,34.8
		c-9,10.6-17.6,18.3-25.8,23.1c-8.1,4.8-13.4,2.4-15.8-7.2c1.2-13.9-0.1-26.1-4.1-36.6c-3.9-10.6-9.6-19.3-17.2-26.2
		c-7.5-6.9-16.6-12.2-27.1-15.8c-10.6-3.6-21.6-5.4-33-5.4c-27.7,0-55.2,4.2-82.3,12.7c-27.2,8.4-53.1,20.2-77.8,35.3
		c-24.7,15.1-47.8,32.9-69.2,53.4c-21.4,20.5-40.6,42.7-57.4,66.5c-16.9,23.8-31.2,48.5-42.9,74.2c-11.7,25.6-19.8,51.1-24,76.4
		c-3.6,23.5-3.3,47,0.9,70.5c4.2,23.5,13.1,44.8,26.7,63.8c13.6,19,32,34.4,55.2,46.1c23.2,11.8,51.7,17.6,85.5,17.6
		c38-4.8,77.9-20.8,119.8-47.9c41.9-27.1,84.3-62.3,127.1-105.4c42.8-43.1,85.8-92.8,128.9-149.2c43.1-56.4,85.2-116.1,126.2-179.1
		c41-63,80.6-127.8,118.9-194.4c38.3-66.6,73.9-131.9,106.7-195.8c32.9-63.9,62.6-124.9,89.1-183.1s48.8-110.2,66.9-156
		c0.6-1.2,1.2-2.5,1.8-4c0.6-1.5,1.2-2.9,1.8-4.1c0.6-1.8,1.2-3.3,1.8-4.5c-23.5,10.9-52.3,27.5-86.4,49.8
		C1009,194.5,973,220.5,935,250c-38,29.5-76.3,61.7-114.9,96.3c-38.6,34.7-73.9,69.5-105.8,104.4c-32,35-59,69-81,102.2
		c-22,33.2-35.7,63-41.1,89.5V641.6z"/>
	<g id="XMLID_46_">
	</g>
	<g id="XMLID_47_">
	</g>
	<g id="XMLID_48_">
	</g>
	<g id="XMLID_49_">
	</g>
	<g id="XMLID_50_">
	</g>
	<g id="XMLID_51_">
	</g>
	<g id="XMLID_52_">
	</g>
	<g id="XMLID_53_">
	</g>
	<g id="XMLID_54_">
	</g>
	<g id="XMLID_55_">
	</g>
	<g id="XMLID_56_">
	</g>
	<g id="XMLID_57_">
	</g>
	<g id="XMLID_58_">
	</g>
	<g id="XMLID_59_">
	</g>
	<g id="XMLID_60_">
	</g>
</g>
</svg>
